<svg xmlns="http://www.w3.org/2000/svg" width="27" height="26" viewBox="0 0 27 26">
  <defs>
    <style>
      .cls-1 {
        fill: #1a1a1a;
        fill-rule: evenodd;
      }
    </style>
  </defs>
  <path id="IG" class="cls-1" d="M1.5,24.727a3.175,3.175,0,0,0,2.327.971H22.948a3.315,3.315,0,0,0,3.3-3.3V3.281A3.175,3.175,0,0,0,25.275.954a3.175,3.175,0,0,0-2.327-.971H3.829A3.175,3.175,0,0,0,1.5.954,3.174,3.174,0,0,0,.531,3.281V22.4A3.174,3.174,0,0,0,1.5,24.727ZM3.394,10.865h2.36a7.2,7.2,0,0,0-.335,2.193,7.35,7.35,0,0,0,2.344,5.483,7.82,7.82,0,0,0,5.642,2.268,8.045,8.045,0,0,0,4.018-1.038,7.815,7.815,0,0,0,2.913-2.821,7.421,7.421,0,0,0,1.071-3.892,7.208,7.208,0,0,0-.335-2.193h2.26V21.713a0.974,0.974,0,0,1-.3.728,1,1,0,0,1-.72.293H4.415a1,1,0,0,1-1.021-1.021V10.865Zm10.011-3.08A5.072,5.072,0,0,1,17.063,9.25a4.746,4.746,0,0,1,1.515,3.541,4.744,4.744,0,0,1-1.515,3.541A5.071,5.071,0,0,1,13.405,17.8a5.051,5.051,0,0,1-3.641-1.465A4.744,4.744,0,0,1,8.249,12.79,4.745,4.745,0,0,1,9.764,9.25a5.051,5.051,0,0,1,3.641-1.465h0ZM18.109,4a1.124,1.124,0,0,1,.335-0.812,1.1,1.1,0,0,1,.82-0.343h2.913a1.1,1.1,0,0,1,.82.343A1.125,1.125,0,0,1,23.333,4V6.764a1.143,1.143,0,0,1-1.155,1.155H19.265a1.143,1.143,0,0,1-1.155-1.155V4Z"/>
</svg>
