<svg width="0" height="0" class="hidden">
  <symbol xmlns="http://www.w3.org/2000/svg" viewBox="0 0 15 29" id="fb">
    <path d="M4.391 15.991V28.7h5.122V15.991h4.252l.653-4.955H9.513V7.872a2.773 2.773 0 0 1 .5-1.808 2.46 2.46 0 0 1 1.942-.6h2.628V1.041a27.682 27.682 0 0 0-3.817-.2 6.319 6.319 0 0 0-4.634 1.715 6.475 6.475 0 0 0-1.741 4.83v3.65H.122v4.955h4.269z" fill="#1a1a1a"
      fill-rule="evenodd"></path>
  </symbol>
  <symbol xmlns="http://www.w3.org/2000/svg" viewBox="0 0 27 26" id="inst">
    <path d="M1.5 24.727a3.175 3.175 0 0 0 2.327.971h19.121a3.315 3.315 0 0 0 3.3-3.3V3.281a3.175 3.175 0 0 0-.973-2.327 3.175 3.175 0 0 0-2.327-.971H3.829A3.175 3.175 0 0 0 1.5.954a3.174 3.174 0 0 0-.969 2.327V22.4a3.174 3.174 0 0 0 .969 2.327zm1.894-13.862h2.36a7.2 7.2 0 0 0-.335 2.193 7.35 7.35 0 0 0 2.344 5.483 7.82 7.82 0 0 0 5.642 2.268 8.045 8.045 0 0 0 4.018-1.038 7.815 7.815 0 0 0 2.913-2.821 7.421 7.421 0 0 0 1.071-3.892 7.208 7.208 0 0 0-.335-2.193h2.26v10.848a.974.974 0 0 1-.3.728 1 1 0 0 1-.72.293H4.415a1 1 0 0 1-1.021-1.021V10.865zm10.011-3.08a5.072 5.072 0 0 1 3.658 1.465 4.746 4.746 0 0 1 1.515 3.541 4.744 4.744 0 0 1-1.515 3.541 5.071 5.071 0 0 1-3.658 1.468 5.051 5.051 0 0 1-3.641-1.465 4.744 4.744 0 0 1-1.515-3.545 4.745 4.745 0 0 1 1.515-3.54 5.051 5.051 0 0 1 3.641-1.465zM18.109 4a1.124 1.124 0 0 1 .335-.812 1.1 1.1 0 0 1 .82-.343h2.913a1.1 1.1 0 0 1 .82.343 1.125 1.125 0 0 1 .336.812v2.764a1.143 1.143 0 0 1-1.155 1.155h-2.913a1.143 1.143 0 0 1-1.155-1.155V4z"
      fill="#1a1a1a" fill-rule="evenodd"></path>
  </symbol>
  <symbol xmlns="http://www.w3.org/2000/svg" viewBox="0 0 27 22" id="twtr">
    <path d="M8.571 21.555a15.8 15.8 0 0 0 5.407-.913A13.753 13.753 0 0 0 18.3 18.2a16.357 16.357 0 0 0 3.089-3.524 15.708 15.708 0 0 0 1.934-4.16 15.367 15.367 0 0 0 .636-4.344q0-.469-.017-.7a11.332 11.332 0 0 0 2.712-2.8 10.77 10.77 0 0 1-3.114.837A5.249 5.249 0 0 0 25.915.528a10.606 10.606 0 0 1-3.432 1.306 5.42 5.42 0 0 0-7.776-.126 5.211 5.211 0 0 0-1.582 3.825 6 6 0 0 0 .134 1.239A15.061 15.061 0 0 1 7.04 5.107a15.322 15.322 0 0 1-4.93-3.993 5.3 5.3 0 0 0-.737 2.729 5.268 5.268 0 0 0 .653 2.578 5.4 5.4 0 0 0 1.758 1.925 5.365 5.365 0 0 1-2.445-.686v.067a5.225 5.225 0 0 0 1.23 3.44 5.319 5.319 0 0 0 3.106 1.867 5.585 5.585 0 0 1-1.423.184 6.81 6.81 0 0 1-1.021-.084 5.418 5.418 0 0 0 5.056 3.75 10.587 10.587 0 0 1-6.713 2.31 11.557 11.557 0 0 1-1.306-.067 15.015 15.015 0 0 0 8.3 2.427z"
      fill="#1a1a1a" fill-rule="evenodd"></path>
  </symbol>
</svg>