<svg xmlns="http://www.w3.org/2000/svg" width="27" height="22" viewBox="0 0 27 22">
  <defs>
    <style>
      .cls-1 {
        fill: #1a1a1a;
        fill-rule: evenodd;
      }
    </style>
  </defs>
  <path id="TWTR" class="cls-1" d="M8.571,21.555a15.8,15.8,0,0,0,5.407-.913A13.753,13.753,0,0,0,18.3,18.2a16.357,16.357,0,0,0,3.089-3.524,15.708,15.708,0,0,0,1.934-4.16,15.367,15.367,0,0,0,.636-4.344q0-.469-0.017-0.7a11.332,11.332,0,0,0,2.712-2.8,10.77,10.77,0,0,1-3.114.837A5.249,5.249,0,0,0,25.915.528a10.606,10.606,0,0,1-3.432,1.306,5.42,5.42,0,0,0-7.776-.126,5.211,5.211,0,0,0-1.582,3.825,6,6,0,0,0,.134,1.239A15.061,15.061,0,0,1,7.04,5.107a15.322,15.322,0,0,1-4.93-3.993,5.3,5.3,0,0,0-.737,2.729,5.268,5.268,0,0,0,.653,2.578A5.4,5.4,0,0,0,3.784,8.346,5.365,5.365,0,0,1,1.339,7.66V7.727a5.225,5.225,0,0,0,1.23,3.44,5.319,5.319,0,0,0,3.106,1.867,5.585,5.585,0,0,1-1.423.184,6.81,6.81,0,0,1-1.021-.084,5.418,5.418,0,0,0,5.056,3.75,10.587,10.587,0,0,1-6.713,2.31,11.557,11.557,0,0,1-1.306-.067,15.015,15.015,0,0,0,8.3,2.427h0Z"/>
</svg>
